<?xml version="1.0" encoding="UTF-8"?>
<svg width="1200pt" height="1200pt" version="1.1" viewBox="0 0 1200 1200" xmlns="http://www.w3.org/2000/svg">
 <path d="m175.5 1080h325.79c30.598 0 55.488-24.895 55.488-55.492v-518.83c0-28.371-21.477-51.57-48.984-54.836v-73.156c0-20.859-16.969-37.828-37.816-37.828h-18.027c-2.1211-34.035-19.152-65.129-47.07-85.203v-68.172c0-36.66-29.824-66.484-66.492-66.484s-66.492 29.824-66.492 66.484v68.18c-27.918 20.062-44.938 51.156-47.059 85.195h-18.027c-20.859 0-37.828 16.969-37.828 37.828v73.156c-27.5 3.2734-48.984 26.473-48.984 54.836v518.82c0 30.602 24.902 55.496 55.5 55.496zm325.79-24h-325.79c-17.367 0-31.5-14.129-31.5-31.492v-433.43h388.78v433.43c0 17.363-14.121 31.492-31.488 31.492zm-210.96-784.84c3.4688-2.2031 5.5664-6.0234 5.5664-10.133v-74.543c0-23.426 19.066-42.484 42.492-42.484s42.492 19.059 42.492 42.484v74.539c0 4.1094 2.0977 7.9258 5.5664 10.125 24.207 15.395 39.258 40.73 41.48 68.711h-179.06c2.2148-27.988 17.258-53.32 41.465-68.699zm-83.52 92.699h263.17c7.6172 0 13.816 6.2031 13.816 13.828v72.496h-290.81v-72.496c0-7.6211 6.1992-13.828 13.828-13.828zm-31.312 110.33h325.79c17.367 0 31.488 14.129 31.488 31.492v61.395h-388.78v-61.395c0-17.363 14.133-31.492 31.5-31.492z"/>
 <path d="m380.07 933.75h-83.367c-6.6328 0-12 5.3711-12 12s5.3672 12 12 12h83.367c6.6328 0 12-5.3711 12-12s-5.3672-12-12-12z"/>
 <path d="m380.07 678.53h-83.367c-6.6328 0-12 5.3711-12 12s5.3672 12 12 12h83.367c6.6328 0 12-5.3711 12-12s-5.3672-12-12-12z"/>
 <path d="m380.07 806.14h-83.367c-6.6328 0-12 5.3711-12 12s5.3672 12 12 12h83.367c6.6328 0 12-5.3711 12-12s-5.3672-12-12-12z"/>
 <path d="m753.32 938.1c0 39.254 31.934 71.184 71.191 71.184 39.246 0 71.18-31.934 71.18-71.184 0-39.254-31.934-71.184-71.18-71.184-39.258 0-71.191 31.934-71.191 71.184zm118.37 0c0 26.016-21.164 47.184-47.18 47.184-26.016 0-47.191-21.172-47.191-47.184 0-26.016 21.176-47.184 47.191-47.184 26.016 0 47.18 21.168 47.18 47.184z"/>
 <path d="m733.28 614.53v6.0234c0 22.176 15.352 40.695 35.941 45.875l-0.33984 141.25c-51.949 22.16-86.285 73.535-86.285 130.42 0 78.246 63.668 141.9 141.91 141.9 78.246 0 141.9-63.656 141.9-141.9 0-57.035-34.453-108.46-86.578-130.55l0.33984-141.24c20.391-5.3203 35.555-23.727 35.555-45.758v-6.0234c43.441-16.535 81.34-44.355 110.02-80.836 74.227-94.422 72.293-229.64-4.5938-321.52-49.008-58.578-120.69-92.176-196.65-92.176-75.949 0-147.63 33.598-196.64 92.172-76.887 91.875-78.82 227.1-4.5938 321.52 28.676 36.484 66.574 64.305 110.02 80.84zm209.13 323.57c0 65.012-52.887 117.9-117.9 117.9-65.016 0-117.91-52.891-117.91-117.9 0-49.617 31.465-94.195 78.293-110.92 4.7695-1.7031 7.957-6.2109 7.9688-11.273l0.35938-147.89h62.953l-0.35938 147.71c-0.011719 5.0898 3.1875 9.6406 7.9922 11.344 47.016 16.645 78.609 61.27 78.609 111.04zm105.99-503.22c-28.16-4.0039-49.953-28.027-49.953-57.273 0-29.566 22.285-53.773 50.895-57.367 9.1836 37.598 8.8984 77.082-0.94141 114.64zm-402.15-207.3c44.449-53.113 109.42-83.574 178.24-83.574 68.836 0 133.8 30.461 178.25 83.574 17.562 20.988 30.777 44.48 39.688 69.242-38.555 6.7188-67.988 40.344-67.988 80.793 0 39.918 28.652 73.234 66.461 80.559-8.1211 21.445-19.328 41.98-34.035 60.691-27.586 35.09-64.594 61.34-107.04 75.902-4.8516 1.6641-8.1094 6.2227-8.1094 11.352v14.445c0 12.93-10.523 23.453-23.461 23.453h-0.046875-0.023438-87.457c-12.938 0-23.461-10.523-23.461-23.453v-14.445c0-5.1289-3.2578-9.6836-8.1094-11.352-42.445-14.559-79.453-40.809-107.04-75.902-14.707-18.711-25.914-39.246-34.035-60.691 37.809-7.3281 66.461-40.645 66.461-80.559 0-40.449-29.434-74.074-67.988-80.793 8.9102-24.762 22.125-48.258 39.688-69.242zm-46.594 92.664c28.613 3.5938 50.895 27.801 50.895 57.367 0 29.242-21.793 53.266-49.953 57.273-9.8398-37.559-10.125-77.043-0.94141-114.64z"/>
 <path d="m824.51 459.7c45.27 0 82.09-36.828 82.09-82.098s-36.82-82.098-82.09-82.098c-45.27 0-82.102 36.828-82.102 82.098 0 45.273 36.832 82.098 82.102 82.098zm0-140.19c32.027 0 58.09 26.062 58.09 58.098s-26.062 58.098-58.09 58.098c-32.039 0-58.102-26.062-58.102-58.098s26.062-58.098 58.102-58.098z"/>
</svg>
