<?xml version="1.0" encoding="UTF-8"?>
<svg width="1200pt" height="1200pt" version="1.1" viewBox="0 0 1200 1200" xmlns="http://www.w3.org/2000/svg">
 <path d="m944.39 1012.2c-4.8281 42.844-16.078 75-33.797 96.281-18.797 22.688-44.25 33.141-76.219 31.312h-0.32812l-0.28125-0.046875h-0.046875l-0.28125-0.046875h-0.046875l-0.28125-0.046875h-0.046875l-0.28125-0.046875h-0.046875l-0.28125-0.046875h-0.046875l-0.28125-0.046875-0.28125-0.09375c-39.656-7.4531-74.203-14.062-103.69-19.828-30.562-6-58.125-11.578-82.547-16.688-0.60938-0.09375-1.2188-0.23438-1.7812-0.42188-9.9844-3.1406-18.891-7.5-26.625-12.891-5.2969-3.7031-9.9844-7.9219-14.109-12.609-26.484 8.7188-48.703 15.469-78.844 24.656l-64.828 19.875-0.5625 0.1875-0.84375 0.23438h-0.046875l-0.23438 0.09375h-0.046875l-0.5625 0.14062c-31.688 5.5312-58.219-1.9219-79.594-22.406-19.969-19.125-34.875-49.734-44.531-91.734-3.2812-8.1094-5.0625-16.078-5.25-23.812-0.09375-4.5469 0.32812-9 1.3125-13.359-3.1406-2.1562-6-4.5938-8.5781-7.3125-4.8281-5.1562-8.5312-11.344-11.156-18.516l-0.375-1.0312-79.406-244.92-0.14062-0.51562-0.046875-0.09375-0.046875-0.1875-0.046875-0.09375-0.09375-0.28125-0.046875-0.1875-0.046875-0.09375c-0.1875-0.9375-0.23438-1.875-0.1875-2.7656 0-5.9531 0.79688-11.438 2.4375-16.453 0.70312-2.1094 1.5469-4.0781 2.4844-6.0469-3.7969-4.875-6.5625-10.078-8.2031-15.469-1.875-6.0938-2.3438-12.328-1.4531-18.75-5.3438-5.25-9.0469-11.156-11.016-17.719l-0.1875-0.70312c-1.8281-6.4219-2.0156-13.266-0.5625-20.531-5.25-5.5781-8.9062-11.625-10.828-18.094-1.9688-6.4688-2.25-13.219-0.89062-20.156-5.0156-5.25-8.5781-11.062-10.641-17.391-2.2031-6.7969-2.6719-13.969-1.3594-21.562-4.2656-5.5781-7.4062-11.484-9.4219-17.766-2.0625-6.4688-2.9531-13.219-2.5781-20.203-4.6406-5.2969-8.1094-11.016-10.453-17.109-2.5781-6.75-3.75-13.828-3.5156-21.234-9.4219-17.016-16.828-34.266-22.078-51.656-5.625-18.562-8.9062-37.266-9.7969-56.016-1.4062-29.203 2.9531-58.641 12.984-88.359 9.2812-27.516 23.578-55.312 42.797-83.25-1.5469-3.8438-2.8594-7.6875-4.0781-11.531-1.2188-3.9844-2.25-7.9688-3.1406-11.953-7.8281-5.625-13.078-12.234-15.797-19.734-3.2812-9.2344-2.4844-19.219 2.4375-29.766 1.6406-3.4688 4.7344-5.8594 8.2031-6.6562l87.375-25.969 0.28125-0.09375c3.375-1.125 7.2188-0.75 10.406 1.3125 8.25 5.3906 14.016 12.375 17.203 20.812l0.28125 0.70312c2.6719 7.4531 3.1875 15.891 1.5469 25.172 2.3438 8.0156 4.5938 15.422 7.125 23.203 31.922 10.5 59.672 24.047 83.203 40.641 25.125 17.672 45.469 38.812 60.984 63.281l0.14062 0.23438 0.09375 0.14062 0.046875 0.09375 0.14062 0.23438v0.046875c3.8438 6.0938 7.4062 12.516 10.781 19.266l0.5625 1.0312c3.375 6.9375 6.4688 14.297 9.2812 21.984 3.9375 10.781 7.125 22.031 9.6094 33.703 2.1094 10.078 3.75 20.531 4.8281 31.266 5.7656 5.0625 9.9375 10.922 12.562 17.672 2.5312 6.4688 3.4688 13.594 2.8594 21.281 4.5 5.2969 7.8281 11.25 9.8906 17.766 2.1094 6.5625 2.9531 13.641 2.5312 21.188 4.5469 5.2969 7.875 11.203 9.9844 17.672 2.0625 6.3281 2.9062 13.078 2.5312 20.25 5.0156 5.4375 8.5781 11.391 10.641 17.859l0.23438 0.70312c1.875 6.1406 2.3438 12.562 1.4531 19.312 5.0156 4.5469 8.5781 9.8906 10.688 16.078l0.42188 1.125c2.0156 6.7031 2.25 14.156 0.65625 22.266 4.2188 4.7344 7.2656 10.125 9.1406 16.172 1.6406 5.2969 2.2969 11.062 2.0625 17.203 2.2031 1.125 4.3594 2.3906 6.3281 3.8906 4.6875 3.4219 8.5781 7.7344 11.719 12.891l0.046875 0.046875 0.09375 0.1875 0.046875 0.046875 0.14062 0.23438 0.046875 0.046875 0.14062 0.23438 0.046875 0.046875 0.09375 0.23438 0.046875 0.046875 0.09375 0.23438 0.046875 0.046875 0.09375 0.23438 0.046875 0.046875 0.09375 0.23438 0.046875 0.09375 0.09375 0.23438 0.046875 0.09375 0.09375 0.23438 0.046875 0.046875 0.09375 0.23438 0.046875 0.046875 0.09375 0.23438v0.046875l0.1875 0.5625c14.812 45.75 27 81.562 38.953 116.62 5.9062 17.344 11.812 34.547 17.859 52.594l27.234-134.86v-0.09375l0.09375-0.5625c0.1875-0.89062 0.42188-1.7344 0.79688-2.5781l0.09375-0.28125c2.5781-5.5781 6-10.406 10.312-14.391 1.8281-1.6875 3.7969-3.2344 5.9062-4.6406-0.98438-6.0469-0.98438-11.812 0.046875-17.25 1.125-6.2812 3.6094-12 7.2656-17.156-2.4844-7.875-3.1406-15.234-1.875-22.125 1.2656-6.8906 4.2656-13.031 9-18.469-1.5938-6.5625-1.875-12.984-0.75-19.312 1.2656-6.9375 4.1719-13.547 8.6719-19.688-1.1719-7.0781-1.125-13.875 0.23438-20.391 1.3594-6.6094 3.9844-12.797 7.875-18.609-1.2656-7.4062-1.2188-14.531 0.09375-21.328 1.3125-6.7031 3.9375-12.938 7.7812-18.75-1.5-7.5469-1.3125-14.766 0.42188-21.562 1.8281-7.0312 5.3438-13.359 10.5-19.031-0.14062-10.828 0.28125-21.375 1.2188-31.547 1.0781-11.484 2.9531-22.688 5.4844-33.516v-0.09375c0.09375-0.65625 0.23438-1.2656 0.46875-1.875 1.7344-7.4531 3.9844-14.859 6.5156-22.031 2.625-7.4531 5.6719-14.766 9.0938-21.797l0.32812-0.60938c12.656-26.062 30.422-49.266 53.25-69.609 21.516-19.125 47.578-35.766 78.094-49.828l2.2031-10.547 2.2031-13.266c-2.6719-9.0469-3.1406-17.484-1.3125-25.219 2.0156-8.7188 6.75-16.312 14.156-22.688 2.6719-2.625 6.4688-3.9375 10.453-3.2812l90.844 16.031 0.28125 0.046876 0.09375 0.046874 0.1875 0.046876 0.70312 0.23437h0.09375l0.1875 0.046876 0.09375 0.046874 0.1875 0.046876h0.09375l0.23438 0.09375h0.09375l0.23438 0.09375h0.046875l0.23438 0.09375h0.046875l0.23438 0.09375h0.046875l0.46875 0.1875 0.70312 0.42187 0.51562 0.28125 0.46875 0.28125 0.46875 0.375 0.42188 0.375 0.1875 0.1875h0.046875l0.1875 0.1875h0.046875l0.42188 0.42188 0.14062 0.1875 0.046875 0.046874 0.14062 0.1875 0.046875 0.046876 0.14062 0.1875 0.046875 0.046874 0.09375 0.1875 0.09375 0.09375 0.09375 0.14063 0.09375 0.09375 0.09375 0.14062 0.09375 0.09375 0.1875 0.28125 0.09375 0.09375 0.09375 0.14063 0.046875 0.09375 0.14062 0.23437c5.9062 9.7969 7.7812 19.453 5.5781 28.922-1.7812 7.7344-6.2812 14.906-13.406 21.375-0.375 4.0312-0.9375 8.1094-1.7344 12.281-0.75 3.9375-1.6406 7.9688-2.7656 12 22.266 25.594 39.609 51.562 51.984 77.859 13.312 28.219 21 56.859 22.969 85.875v0.9375c1.1719 18.562 0.046875 37.312-3.4219 56.203-3.2812 17.859-8.625 35.766-16.031 53.766 1.0781 7.3594 0.75 14.578-1.125 21.562-1.6406 6.3281-4.4531 12.375-8.4844 18.188 1.1719 6.9375 1.125 13.734-0.23438 20.344-1.3125 6.4688-3.75 12.703-7.4062 18.75 2.1562 7.3594 2.5312 14.531 1.125 21.562-1.3594 6.5156-4.2188 12.75-8.5781 18.469 2.1094 6.7031 2.625 13.406 1.4062 20.062-1.2188 6.7031-4.125 13.125-8.6719 19.266 2.2969 7.125 2.8594 14.062 1.6875 20.719l-0.09375 0.46875c-1.2656 6.7969-4.2188 13.125-8.9062 18.891 1.5938 6.2344 1.8281 12.469 0.70312 18.703-1.0312 5.5781-3.1875 11.062-6.375 16.359 1.1719 1.7812 2.2031 3.7031 3.1406 5.6719l0.28125 0.70312c2.1562 4.8281 3.5156 10.172 4.125 15.938v2.1094l-0.046875 0.1875v0.42187l-0.046875 0.1875-0.046875 0.375-0.046875 0.23438v0.09375l-0.046875 0.23437v0.09375l-0.1875 0.5625-50.859 251.63v0.09375l-0.046875 0.23438v0.09375l-0.1875 0.5625v0.046875c-1.7344 7.4531-4.7812 14.062-8.9531 19.734-2.2031 3.0469-4.7812 5.8125-7.6406 8.25 1.4531 4.2188 2.3906 8.5781 2.8125 13.125 0.70312 7.6875-0.14062 15.797-2.4844 24.188zm-550.6-273.37c0.84375-13.078 2.4375-25.219 4.7812-36.375 2.3906-11.531 5.5781-22.078 9.5625-31.547l0.09375-0.23437v-0.046876c1.5938-3.5625 4.7344-6 8.3438-6.7969l0.23438-0.046876h0.09375l0.23437-0.046874h0.046876l0.23437-0.046876h0.046876c0.84375-0.14062 1.6875-0.1875 2.5312-0.09375h0.046874c0.46875 0.046876 0.9375 0.09375 1.4062 0.1875 0.79688 0.14063 1.5469 0.375 2.2969 0.70313l0.23437 0.09375h0.046876c0.65625 0.28125 1.2656 0.65625 1.8281 1.0312l0.09375 0.09375 0.14063 0.09375 0.23437 0.1875c8.4375 5.4375 16.828 12.094 25.031 19.828 8.3906 7.9219 16.688 17.062 24.844 27.281 5.3438 5.5781 9.0469 12 11.156 18.797 2.6719 8.4844 2.8594 17.578 0.79688 26.109-2.0156 8.2031-6.1875 15.938-12.188 22.125l-0.70313 0.75c-5.1562 5.1094-11.719 9.1875-19.453 11.625-7.6875 2.3906-15.328 2.7656-22.5 1.5469-8.9062-1.5469-17.109-5.5781-23.672-11.344-6.5625-5.7656-11.578-13.359-14.25-21.938-2.1094-6.75-2.7656-14.109-1.5938-21.703zm31.359-44.297c-1.1719 4.0781-2.25 8.3438-3.1406 12.797-2.0625 10.078-3.5625 21.141-4.3125 33.094v0.5625l-0.046874 0.28125v0.046874l-0.046876 0.28125v0.046876l-0.046874 0.28125v0.046874l-0.046876 0.28125v0.046876l-0.046874 0.1875v0.1875c-0.60938 3.7969-0.28125 7.5469 0.79687 10.922 1.3125 4.2656 3.8906 8.1094 7.2656 11.062 3.3281 2.9531 7.4531 5.0156 11.859 5.7656 3.5625 0.60937 7.4531 0.375 11.391-0.84375 3.8438-1.2188 7.125-3.2344 9.7031-5.8125l0.51563-0.46875c2.9531-3.0938 5.0156-6.9375 6-11.016 1.0312-4.3594 0.9375-8.9531-0.42188-13.312-1.0312-3.2812-2.8594-6.4688-5.4375-9.2344h-0.046874l-0.23438-0.23438-0.046874-0.09375-0.14063-0.14062h-0.046874l-0.1875-0.23438h-0.046876l-0.5625-0.70312h-0.046874l-0.14063-0.23438-0.1875-0.23437c-7.5-9.375-14.953-17.625-22.406-24.656l-0.09375-0.09375c-3.2812-3.0938-6.5156-5.9531-9.7969-8.5781zm0.98437-440.21c-30.328-0.60938-57.469 3.4219-81.375 12.094-16.781 6.0938-32.062 14.438-45.75 25.078l2.1094 0.1875 0.32812 0.046875c40.312 3.7969 82.641 7.6875 135.94-15.047-1.3594-3.1406-2.7656-6.2812-4.3125-9.375l-0.42187-0.9375c-2.0156-4.0312-4.1719-8.0625-6.5156-12.047zm-160.26 34.688c20.109-20.297 43.688-35.344 70.688-45.141 22.078-7.9688 46.406-12.422 73.031-13.359-11.625-14.297-25.5-27.141-41.578-38.438-22.125-15.516-48.469-28.266-79.078-38.156l-81.281 24.141c-18.562 26.719-32.25 53.156-41.109 79.266-6.6094 19.547-10.5 38.906-11.625 58.078 18.422-10.734 35.812-17.484 52.5-21.469 20.344-4.875 39.516-5.7188 58.406-4.9688zm179.58 10.219c-58.078 24.516-103.27 20.344-146.29 16.312l-0.28125-0.046875c-9.6094-0.89062-19.125-1.8281-28.828-2.3438-18.75-1.0312-37.5-0.60938-57.047 4.0781-17.953 4.3125-36.938 12.328-57.75 26.203 1.1719 14.625 3.9375 29.203 8.3438 43.641 4.2188 13.828 9.9375 27.703 17.156 41.484 57.422-17.766 108.8-33.938 154.08-48.328 45.047-14.344 84.797-27.234 119.16-38.578-0.98438-8.3438-2.2969-16.406-3.9375-24.188-1.3125-6.2344-2.8594-12.328-4.6406-18.234zm-182.11-213.94-77.109 22.875c-0.65625 2.625-0.60937 4.9688 0.09375 6.9844 0.89063 2.4844 2.9062 4.9688 6 7.4062l76.078-22.594c0.14062-3.1406-0.23438-5.9531-1.0781-8.4375l-0.14062-0.42188c-0.79688-2.1094-2.1094-4.0781-3.8906-5.8594zm7.7344 38.859-66.656 19.828 1.125 3.7969c0.5625 1.7812 1.1719 3.6094 1.8281 5.4844l66.609-19.781zm193.22 239.29c-35.953 11.906-76.734 25.125-122.21 39.609-47.203 15-98.953 31.266-155.11 48.656 0.28125 2.2969 0.84375 4.5 1.6875 6.6094 1.0312 2.6719 2.4844 5.25 4.4062 7.7812 58.172-18.047 110.25-34.359 156.05-48.938 45.844-14.578 86.156-27.656 120.94-39.141-0.046875-2.9062-0.51562-5.5781-1.4531-7.9219-0.9375-2.3906-2.3438-4.5938-4.3125-6.6562zm13.125 37.312c-35.672 11.812-76.031 24.891-121.08 39.234-47.297 15.047-99.234 31.359-155.58 48.797 0.14062 2.8125 0.60938 5.5781 1.4531 8.1562 0.89062 2.7656 2.2031 5.4844 3.9375 8.1094 57.75-17.906 109.41-34.078 154.97-48.562 45.984-14.578 86.391-27.703 121.31-39.281-0.09375-3.375-0.5625-6.4688-1.4531-9.3281-0.79687-2.4844-1.9688-4.875-3.5156-7.125zm12.562 39.094c-35.812 11.859-76.406 25.031-121.64 39.422-47.438 15.094-99.516 31.453-156.14 48.984-0.23438 2.8594 0 5.5312 0.79688 7.9219 0.84375 2.5781 2.2969 5.0625 4.4531 7.4531 58.5-18.094 110.77-34.5 156.79-49.172 45.703-14.531 85.922-27.562 120.61-39.047-0.09375-3.0938-0.5625-5.9531-1.4062-8.625-0.79688-2.4375-1.9688-4.7344-3.4688-6.9375zm12.891 38.062c-35.766 11.812-76.266 24.984-121.4 39.328-47.766 15.188-100.17 31.641-157.26 49.312-0.375 2.7188-0.23438 5.25 0.46875 7.5938 0.79688 2.625 2.2969 5.2031 4.4531 7.7344 58.453-18.094 110.72-34.5 156.71-49.125 46.125-14.672 86.672-27.797 121.64-39.375 0.23438-2.9531 0-5.7188-0.75-8.25l-0.14062-0.51562c-0.75-2.2969-1.9688-4.5469-3.6562-6.7031zm12.75 37.922c-36.047 11.953-76.922 25.219-122.58 39.75-47.766 15.188-100.17 31.641-157.22 49.312-0.46875 3.0469-0.375 5.7656 0.28125 8.25l0.14063 0.375c0.70312 2.3906 2.0625 4.6875 4.0781 6.8438 58.547-18.094 110.81-34.547 156.89-49.172 46.359-14.766 87.188-27.984 122.26-39.609 0.65625-3.8438 0.5625-7.125-0.23438-9.8906l-0.1875-0.65625c-0.70312-1.875-1.8281-3.6094-3.4219-5.2031zm10.594 38.672c-35.859 11.859-76.453 25.031-121.74 39.469-47.578 15.141-99.797 31.5-156.56 49.078-0.14062 2.3906 0.09375 4.6406 0.79688 6.8438 0.79687 2.5312 2.1562 5.0625 4.0781 7.5938 58.031-18 109.97-34.266 155.72-48.797 46.125-14.672 86.672-27.844 121.64-39.375 0.14062-3.375-0.1875-6.4219-0.98438-9.0469-0.60938-2.0625-1.5938-3.9844-2.8594-5.7188zm14.859 36.328c-36.75 12.141-78.562 25.734-125.39 40.641-48.375 15.375-101.48 32.062-159.32 49.969-0.84375 1.4062-1.5469 2.8594-2.0625 4.4062-0.75 2.3906-1.1719 4.9688-1.3125 7.7344l78.797 243.05 0.046875 0.046875 0.046875 0.1875 0.046875 0.14062 0.046875 0.09375c1.5 4.0781 3.5625 7.5 6.1406 10.266 1.8281 1.9688 3.9375 3.6562 6.4219 5.0625l83.016-25.594c72.422-22.266 129.05-39.703 180.74-56.766l12.656-62.672c-11.344-34.688-21.094-63.281-30.938-92.25-11.812-34.734-23.906-70.125-38.766-116.16-1.4062-2.1562-3.0938-3.9375-4.9688-5.3438-1.5-1.125-3.2344-2.0156-5.1562-2.7656zm-188.72 398.63c93.891-29.156 142.64-45.516 195.24-63.234l50.438-16.875c3.75-1.2188 7.6875-0.51562 10.641 1.5938l2.3438-2.1562c-1.4531-2.6719-2.6719-5.4375-3.5156-8.3438-0.46875-1.5469-0.84375-3.0938-1.125-4.6875-50.719 16.594-104.34 33.141-171.84 53.859l-81.797 25.219c-0.79688 2.8594-1.125 5.8594-1.0312 8.8594 0.046875 1.875 0.23438 3.7969 0.60938 5.7656zm292.97-182.06c-0.09375 1.125-0.28125 2.2031-0.65625 3.2344l-14.156 70.031-0.14062 0.9375c-0.9375 4.4062-0.89063 8.3906 0.14062 11.859 0.79688 2.5781 2.1562 5.0625 4.0781 7.4062 36.609 7.6875 79.5 16.312 128.58 25.969 50.25 9.8438 104.81 20.344 163.5 31.406 2.2969-1.6875 4.2188-3.5625 5.8125-5.7188 2.2969-3.0938 3.9375-6.75 4.9688-10.922l0.046876-0.09375v-0.09375l0.046874-0.09375v-0.09375l0.046876-0.23438 50.578-250.13c-0.375-2.625-1.0312-5.0156-1.9688-7.125l-0.23437-0.42188c-0.70313-1.5-1.5469-2.9062-2.5781-4.1719-61.969-11.672-116.67-22.172-164.26-31.5-47.953-9.4219-90.938-18.141-128.95-26.062-1.7812 0.9375-3.375 2.0625-4.7344 3.2812-1.7344 1.6406-3.2344 3.6094-4.4062 5.9531l-35.719 176.72zm-192.79 291.28 64.922-19.875c28.125-8.5781 49.359-15.047 72.844-22.641-4.9688-11.859-7.5469-25.641-7.5938-41.25-0.09375-20.391 4.0312-44.109 12.422-71.016 0.14062-3.0469 0.46875-5.9531 1.0312-8.7656l-40.922 13.734c-53.109 17.859-102.42 34.406-196.4 63.609 8.4844 32.25 20.297 55.594 35.391 70.078 15.375 14.719 34.828 20.109 58.359 16.125zm377.39-342.37c-2.1094-11.719-4.8281-22.641-8.1562-32.672-1.4062-4.3125-2.9531-8.4375-4.5938-12.328-3 3.0469-5.9531 6.2812-8.8594 9.7031-6.6094 7.875-13.219 17.062-19.734 27.562l-0.98437 1.3125-0.09375 0.14062-0.09375 0.09375c-2.2031 3-3.6562 6.3281-4.3125 9.75-0.84375 4.4062-0.42188 9.0469 1.125 13.219 1.4531 3.9375 3.9375 7.5469 7.2188 10.266l0.51562 0.375c2.8125 2.2031 6.3281 3.8906 10.312 4.6406 4.0312 0.79688 7.9688 0.5625 11.391-0.46875 4.3125-1.2656 8.1562-3.75 11.109-7.0312 2.9531-3.2812 5.1094-7.4062 5.9531-11.859 0.65625-3.4219 0.60937-7.125-0.375-10.781l-0.046876-0.1875v-0.09375l-0.046874-0.09375-0.046876-0.1875v-0.046875l-0.09375-0.28125v-0.046875l-0.09375-0.28125v-0.046875l-0.09375-0.28125v-0.046875l-0.046874-0.28125v-0.046875l-0.046876-0.28125zm1.9688-69.562c4.8281 8.8125 9.1406 18.656 12.656 29.391 3.5156 10.594 6.4688 22.5 8.8125 35.625l0.046876 0.14062c2.0625 7.4531 2.25 14.859 0.9375 21.75-1.6875 8.7656-5.8125 16.875-11.672 23.344-5.8594 6.4688-13.5 11.438-22.266 13.969-6.9844 2.0625-14.719 2.5312-22.594 1.0312-7.9219-1.5-14.859-4.8281-20.625-9.3281l-0.70313-0.60938c-6.75-5.5312-11.812-12.75-14.719-20.672-3-8.1562-3.8438-17.203-2.1562-26.016 1.3125-6.8438 4.2188-13.641 8.8125-19.734 6.8906-11.062 14.156-21.094 21.656-30 7.6875-9.1406 15.516-16.922 23.391-23.297l0.375-0.28125 0.09375-0.09375c0.79687-0.60938 1.6875-1.0781 2.5781-1.4062l0.046876-0.046875 1.3594-0.42188h0.046876l0.23437-0.046875h0.046876l1.4062-0.23438h2.8594l1.125 0.1875 1.125 0.28125 0.28125 0.09375 0.51563 0.1875 0.28125 0.09375c1.2188 0.51562 2.3438 1.3125 3.375 2.25l0.046874 0.046875 0.14063 0.1875 0.046874 0.046875 0.14063 0.1875 0.046874 0.046875 0.14063 0.1875 0.46875 0.51562 0.28125 0.375 0.09375 0.09375c0.375 0.51562 0.70312 1.0781 0.98437 1.5938l0.09375 0.1875 0.14063 0.23438v0.046875zm-44.062 62.906-0.23437 0.28125zm-8.1094-501.05c26.578-2.1094 51.281-0.46875 74.062 4.9219 28.031 6.6562 53.156 18.891 75.469 36.797 18.75-2.9062 37.875-4.2656 58.594-1.7344 17.062 2.0625 35.016 6.75 54.562 15.328-3.3281-18.938-9.375-37.734-18.188-56.344-11.766-24.938-28.359-49.641-49.828-74.016l-83.578-14.719c-29.203 13.266-53.953 28.922-74.156 46.922-14.719 13.078-27 27.375-36.938 42.891zm116.81 48c-14.812-9.0469-30.938-15.609-48.281-19.734-24.797-5.8594-52.219-6.7969-82.172-2.7656-1.9688 4.4531-3.7969 9.0469-5.4375 13.688-1.125 3.1875-2.2031 6.4688-3.1875 9.7969 55.688 16.547 97.406 7.7812 137.11-0.5625zm148.78 35.25c-22.219-11.438-42-17.203-60.328-19.406-20.016-2.4375-38.625-0.75-57 2.3906l-0.28125 0.09375-0.28125 0.046875c-9.3281 1.5938-18.609 3.5625-27.938 5.5312-42.375 8.9062-86.859 18.328-147.47 0.51562-1.0781 6.0469-1.9219 12.281-2.5312 18.609-0.75 7.9688-1.125 16.125-1.1719 24.469 35.438 7.4062 76.5 15.656 123.14 24.797 48.75 9.5625 101.53 19.734 158.26 30.422 5.5781-14.531 9.7031-28.922 12.328-43.172 2.7188-14.812 3.8438-29.625 3.3281-44.297zm-140.16-229.03 78.188 13.781c2.8125-2.7656 4.5-5.4375 5.1094-8.0156 0.46875-2.0625 0.23438-4.3594-0.70312-6.9375l-79.266-13.969c-1.5938 2.0625-2.6719 4.2656-3.2344 6.6094-0.5625 2.5312-0.60938 5.3906-0.09375 8.5312zm-1.5938 33.938 68.391 12.047c0.46875-1.9219 0.84375-3.7969 1.2188-5.625l0.70312-3.8906-68.438-12.094-0.79688 4.6406-1.0312 4.9219zm-166.97 265.26c35.766 7.4531 77.344 15.844 124.74 25.125 49.406 9.7031 102.89 20.016 160.45 30.844 1.5938-2.7188 2.7656-5.4375 3.4688-8.25 0.5625-2.2031 0.89062-4.4531 0.89062-6.7969-59.906-11.297-113.02-21.469-159.28-30.562-46.828-9.1875-88.969-17.719-126.28-25.5-1.6875 2.25-2.9062 4.5938-3.5156 7.0781-0.65625 2.4375-0.79688 5.1094-0.51562 8.0156zm-7.8281 40.312c35.719 7.4531 77.203 15.844 124.5 25.078 49.266 9.6562 102.61 19.922 159.94 30.75 1.4062-2.8125 2.3906-5.625 2.9531-8.4844 0.51562-2.7188 0.70312-5.4844 0.51562-8.2969-60.188-11.344-113.58-21.609-159.98-30.703-46.266-9.0938-87.938-17.484-124.87-25.219-1.2656 2.3438-2.1094 4.8281-2.625 7.4062-0.60938 2.9531-0.75 6.0938-0.42188 9.4219zm-8.0625 39.375c35.766 7.4531 77.344 15.844 124.69 25.125 49.5 9.7031 103.27 20.062 161.02 30.938 1.8281-2.625 3.0469-5.25 3.5625-7.875 0.51562-2.5312 0.46875-5.2031-0.09375-8.0156-60.656-11.438-114.47-21.75-161.21-30.938-46.266-9.0938-87.938-17.531-124.92-25.219-1.2656 2.3438-2.1094 4.7812-2.625 7.3125-0.5625 2.7188-0.70312 5.625-0.42188 8.6719zm-8.2031 39.141c35.953 7.5 77.812 15.938 125.58 25.312 49.547 9.7031 103.27 20.062 161.02 30.891 1.9219-2.7656 3.1406-5.5312 3.6094-8.1562 0.42188-2.3906 0.28125-4.9688-0.42188-7.5938-60.797-11.438-114.61-21.75-161.53-30.984-46.547-9.1406-88.359-17.578-125.48-25.312-1.5469 2.4844-2.5312 5.0156-2.9531 7.5469-0.46875 2.625-0.375 5.3906 0.1875 8.2969zm-7.5938 39.281c36.094 7.5469 78.141 16.031 126.1 25.406 49.641 9.75 103.45 20.062 161.34 30.984 1.7344-2.3906 2.8594-4.8281 3.3281-7.2656l0.046875-0.23438c0.375-2.5312 0.1875-5.2969-0.70312-8.3438-60.844-11.438-114.7-21.797-161.58-30.984-46.922-9.2344-89.156-17.766-126.56-25.547-1.5469 1.9219-2.5312 4.0312-2.9062 6.1875-0.51562 2.8125-0.23438 6.0938 0.89062 9.8438zm-6.2344 38.672c35.812 7.5 77.531 15.891 125.06 25.219 49.406 9.7031 102.98 20.016 160.55 30.844 1.6406-2.7188 2.6719-5.3906 3.1875-7.9688 0.42188-2.25 0.375-4.5469 0-6.9375-60.609-11.391-114.33-21.703-161.02-30.891-46.547-9.1406-88.453-17.625-125.58-25.359-1.0781 1.875-1.7812 3.8906-2.2031 5.9531-0.51562 2.7188-0.51562 5.7656 0.046875 9.0938zm-78.281 337.82c38.109 7.9688 82.219 16.828 132.28 26.672 52.406 10.312 109.31 21.234 170.48 32.766 0.14062-2.0156 0.14062-3.9375-0.046875-5.8125-0.28125-3-0.98438-5.9062-2.0625-8.6719-61.219-11.531-115.41-21.938-162.47-31.172-47.719-9.375-90.562-18.047-128.39-25.969-3.2344 1.9219-5.7188 4.3125-7.4531 7.125l-0.32812 0.51562c-0.79688 1.4062-1.5 2.9062-2.0156 4.5469zm30.422 143.02c23.016 4.8281 50.391 10.359 82.125 16.594 32.25 6.3281 66.75 12.938 103.31 19.828 23.719 1.2188 42.375-6.3281 55.969-22.734 13.312-16.078 22.406-40.641 27.188-73.594-64.266-12.094-121.36-23.109-171.28-32.859-49.125-9.6562-93.375-18.562-132.74-26.766-5.8594 20.906-8.8125 39.234-8.7188 54.891 0.09375 17.016 3.7031 30.891 10.875 41.531 3.6094 5.3438 8.1562 9.9375 13.547 13.734 5.4844 3.8438 12.094 7.0312 19.781 9.4688z"/>
</svg>
