<?xml version="1.0" encoding="UTF-8"?>
<svg width="1200pt" height="1200pt" version="1.1" viewBox="0 0 1200 1200" xmlns="http://www.w3.org/2000/svg">
 <path d="m1169.5 25.516c-7.375-7.3867-17.184-11.457-27.617-11.457-10.43 0-20.238 4.0703-27.613 11.457l-309.1 309.61h-217.69c-7.4805-32.703-21.441-63.543-41.129-89.965-1.2227-1.6445-2.4766-3.2891-3.7578-4.9297-21.332-27.375-47.152-50.34-76.715-68.445l0.003906-162.26c0-5.2578-4.2656-9.5234-9.5234-9.5234h-157.45c-5.2578 0-9.5234 4.2656-9.5234 9.5234v162.26c-29.562 18.105-55.383 41.07-76.715 68.445-1.2852 1.6445-2.5352 3.2891-3.7578 4.9297-30.602 41.07-47.457 92.789-47.457 145.63v127.09l-124.36-21.078c-4.082-0.69141-8.1484 1.3398-10.051 5.0156-1.9023 3.6797-1.207 8.1719 1.7227 11.102l31.828 31.879-35.801 15.367c-3.1602 1.3555-5.3398 4.3086-5.7109 7.7305-0.36719 3.418 1.1328 6.7695 3.9258 8.7695l37.504 26.832-30.293 20.23c-2.8203 1.8867-4.4297 5.125-4.2148 8.5117 0.21094 3.3867 2.207 6.4062 5.2422 7.9219l43.871 21.973-25.473 25.512c-2.2305 2.2344-3.2109 5.4297-2.6133 8.5312 0.59766 3.1016 2.6914 5.7031 5.5938 6.9492l35.801 15.367-24.867 24.906c-2.4219 2.4297-3.3555 5.9688-2.4375 9.2734 0.91797 3.3047 3.5391 5.8633 6.8633 6.6953l39.375 9.8594-22.922 22.961c-2.4219 2.4258-3.3555 5.9688-2.4375 9.2734 0.91797 3.3047 3.5391 5.8633 6.8633 6.6953l39.371 9.8594-22.922 22.961c-2.4219 2.4258-3.3555 5.9688-2.4375 9.2734 0.91797 3.3047 3.5391 5.8633 6.8633 6.6953l44.832 11.223-16.48 38.516c-1.1641 2.7227-0.99609 5.832 0.45312 8.4141 1.4531 2.582 4.0195 4.3398 6.9531 4.7578l39.285 5.6211-5.6133 39.363c-0.42188 2.9688 0.57812 5.9609 2.6953 8.082 2.1172 2.1172 5.1133 3.1133 8.082 2.6914l36.137-5.168-5.168 36.215c-0.42188 2.9688 0.57812 5.9609 2.6953 8.082 2.1172 2.1172 5.1055 3.1172 8.082 2.6914l39.277-5.6172 5.6133 39.355c0.41797 2.9336 2.1797 5.5078 4.7656 6.957 2.582 1.4531 5.6992 1.6172 8.4219 0.44922l38.422-16.492 11.207 44.895c0.83203 3.332 3.3906 5.957 6.6992 6.8711 3.3086 0.91797 6.8555-0.019531 9.2773-2.4492l22.891-22.93 9.8398 39.414c0.83203 3.332 3.3906 5.957 6.6992 6.8711 3.3086 0.91797 6.8555-0.019531 9.2773-2.4492l22.891-22.93 9.8398 39.414c0.83203 3.332 3.3906 5.9531 6.6992 6.8711s6.8555-0.019531 9.2773-2.4492l24.84-24.879 15.332 35.836c1.2461 2.9062 3.8516 5.0078 6.957 5.6055 3.1055 0.60156 6.3047-0.38672 8.5391-2.625l25.441-25.484 21.922 43.918c1.5195 3.0391 4.5391 5.0391 7.9297 5.2539 3.4219 0.22266 6.6367-1.3984 8.5195-4.2305l20.176-30.312 26.766 37.535c1.7969 2.5234 4.6992 3.9961 7.7539 3.9961 0.33984 0 0.67969-0.019531 1.0234-0.054687 3.4219-0.36719 6.3789-2.5586 7.7344-5.7227l15.332-35.836 31.797 31.848c2.9297 2.9336 7.4219 3.6328 11.105 1.7344 3.6836-1.8984 5.7148-5.9648 5.0273-10.051l-15.18-89.844 155.23 127.92c1.7109 1.4102 3.8555 2.1719 6.0586 2.1719 0.30469 0 0.61328-0.015625 0.92188-0.046875 2.5156-0.24609 4.832-1.4805 6.4375-3.4336l131.3-159.84c63.996-77.91 67.184-186.22 15.238-266.77l100.76-122.66c24.012-29.234 19.801-72.586-9.3828-96.637-10.258-8.4531-22.457-13.617-35.344-15.152 0.86328-4.3789 1.3008-8.8516 1.3008-13.383 0-25.156-13.586-47.18-33.789-59.137 20.203-11.961 33.789-33.984 33.789-59.141 0-37.859-30.758-68.66-68.566-68.66h-72.168l253.91-254.33c15.215-15.238 15.215-40.035 0-55.277zm-383.35 328.66-40.027 40.09h-152.32v-3.4766c0-12.309-0.95313-24.547-2.7422-36.613zm1.2148 313.38c-27.797 2.7031-54.328 10.355-78.625 22.41h-79.559c0.03125-0.13281 0.070312-0.26563 0.10156-0.39844 3.0312-12.98 4.0195-26.266 3.0234-39.691h287.71l-26.867 32.711c-33.145-13.32-69.219-18.59-105.79-15.031zm74.699 409.7-205.65-169.47-10.879-64.383 41.844-50.941c26.781-32.602 64.633-52.805 106.59-56.887 41.914-4.082 82.938 8.4414 115.47 35.254 67.188 55.367 76.875 155.16 21.598 222.46zm-239.17-367.85c0.050781-0.12891 0.10547-0.25781 0.16016-0.38672h54.156c-15.652 11.312-29.957 24.711-42.547 40.035l-4.207 5.1211zm312.77-78.574h-301.38l40.027-40.094h294.29zm-252.57-75.852-19.465 19.496-0.003906 0.003906-50.352 50.434c-2.3008 2.3047-3.2656 5.625-2.5547 8.8086 3.9102 17.496 3.918 34.828 0.019531 51.516-1.082 4.6289-2.4727 9.2227-4.1562 13.707-6.7266-0.023438-13.082-0.67578-19.051-1.7773-1.082-0.44922-2.2578-0.6875-3.4883-0.70312-6.1875-1.3555-11.918-3.1914-17.18-5.3008-0.24609-0.11328-0.5-0.21094-0.76172-0.30078-19.18-7.8438-31.906-19.254-36.766-24.121-5.0352-5.043-9.2812-10.277-12.879-15.562-0.0625-0.09375-0.125-0.18359-0.19141-0.27344-4.7148-6.9805-8.2852-14.039-10.984-20.863-0.11719-0.35547-0.25391-0.69922-0.41016-1.0352-2.4375-6.3516-4.125-12.48-5.2852-18.129-0.046876-0.38672-0.12891-0.75781-0.22266-1.1328-1.5898-8.1523-2.082-15.242-2.1562-20.43 4.4648-1.6797 9.0312-3.0664 13.637-4.1445 16.656-3.9062 33.949-3.8945 51.41 0.019532 3.1875 0.71875 6.5156-0.25391 8.8242-2.5625l69.801-69.918zm-502.59-151.52h394.26v20.379h-394.26zm467.12 89.031c-1.7852-1.7891-4.2109-2.7969-6.7422-2.7969-2.5273 0-4.9531 1.0039-6.7422 2.7969l-40.34 40.406 0.003907-60.438h74.258l-20.219 20.254zm39.453-39.078h-93.273v-40.094h133.3zm-378.65-434.36h138.4v148.52h-138.4zm-84.246 237.49c1.1406-1.5352 2.3086-3.0664 3.5078-4.6016 20.469-26.266 45.348-48.211 73.914-65.328h152.05c28.566 17.117 53.445 39.059 73.914 65.328 1.1992 1.5391 2.3672 3.0742 3.5078 4.6055 26.938 36.148 42.266 81.336 43.559 127.87h-394c1.2891-46.535 16.617-91.719 43.555-127.87zm-43.68 186.34h394.26v109.09l-13.531 13.551c-18.527-3.4492-36.914-3.0898-54.723 1.0898-6.7227 1.5742-13.363 3.7422-19.801 6.3984l-306.2-51.906zm474.08 669.9c-2.2344-2.2383-5.4336-3.2227-8.5391-2.625s-5.7109 2.6992-6.957 5.6055l-14.207 33.203-24.949-34.984c-1.8203-2.5508-4.7891-4.0469-7.9062-3.9922-3.1328 0.050781-6.0391 1.6367-7.7773 4.2461l-18.727 28.137-20.492-41.051c-1.3672-2.7422-3.9727-4.6562-6.9961-5.1484-3.0273-0.49219-6.1016 0.50391-8.2656 2.6719l-24.84 24.879-15.332-35.836c-1.2461-2.9062-3.8516-5.0078-6.957-5.6055-3.1055-0.60547-6.3047 0.38281-8.5391 2.625l-22.891 22.93-9.8398-39.414c-0.83203-3.332-3.3906-5.9531-6.6992-6.8711-3.3086-0.91797-6.8555 0.019531-9.2773 2.4492l-22.891 22.93-9.8398-39.414c-0.83203-3.332-3.3906-5.957-6.6992-6.8711-3.3125-0.91797-6.8555 0.019531-9.2773 2.4492l-22.891 22.93-9.8398-39.414c-0.67578-2.7109-2.5078-4.9844-5.0078-6.2266-2.5-1.2422-5.418-1.3203-7.9844-0.21875l-37.281 16.004-5.2031-36.473c-0.35547-2.5-1.6914-4.7578-3.7148-6.2734-2.0195-1.5156-4.5703-2.1719-7.0625-1.8086l-36.137 5.168 5.168-36.215c0.42188-2.9688-0.57812-5.9609-2.6953-8.082-2.1172-2.1172-5.1172-3.1211-8.082-2.6914l-36.137 5.168 5.1641-36.215c0.74219-5.207-2.875-10.027-8.082-10.77l-36.418-5.2109 15.992-37.371c1.0938-2.5625 1.0156-5.4805-0.22656-7.9805-1.2422-2.4961-3.5117-4.3281-6.2148-5.0078l-39.375-9.8594 22.922-22.961c2.4219-2.4258 3.3555-5.9688 2.4375-9.2734-0.91797-3.3047-3.5391-5.8633-6.8633-6.6953l-39.371-9.8594 22.922-22.961c2.4219-2.4297 3.3555-5.9688 2.4375-9.2734-0.91797-3.3047-3.5391-5.8633-6.8633-6.6953l-39.375-9.8594 22.922-22.961c2.2344-2.2344 3.2109-5.4297 2.6133-8.5312-0.59766-3.1016-2.6914-5.7031-5.5938-6.9492l-35.801-15.367 24.867-24.906c2.1602-2.1641 3.1523-5.2344 2.6602-8.2539-0.49219-3.0195-2.3984-5.6172-5.1367-6.9922l-41.016-20.539 28.125-18.777c2.6016-1.7344 4.1836-4.6406 4.2344-7.7656 0.050781-3.125-1.4375-6.0781-3.9805-7.8984l-34.965-25.016 33.184-14.242c2.9023-1.2461 4.9961-3.8516 5.5938-6.9492 0.59766-3.1016-0.38281-6.2969-2.6133-8.5312l-20.684-20.715 414.89 70.328c0.082031 3.2227 0.3125 6.9922 0.77734 11.164l-213.39-8.3984c-5.2617-0.19922-9.6836 3.8867-9.8906 9.1445-0.20703 5.2578 3.8867 9.6836 9.1445 9.8906l217.65 8.5664c0.37109 1.4492 0.76562 2.9141 1.1992 4.4023l-137.58 25.09c-5.1719 0.94141-8.6055 5.9023-7.6602 11.078 0.83984 4.5977 4.8438 7.8164 9.3594 7.8164 0.56641 0 1.1406-0.050781 1.7188-0.15625l140.95-25.703c1.2773 2.7695 2.7031 5.5625 4.2539 8.3633l-116.29 50.621c-4.8203 2.1016-7.0312 7.7109-4.9297 12.535 1.5586 3.582 5.0625 5.7227 8.7344 5.7227 1.2695 0 2.5586-0.25391 3.7969-0.79297l119.33-51.949c1.2852 1.6523 2.6055 3.2969 4.0117 4.9297l-111.56 111.75c-3.7148 3.7227-3.7109 9.7539 0.007812 13.469 1.8594 1.8555 4.2969 2.7852 6.7305 2.7852 2.4414 0 4.8789-0.93359 6.7422-2.7969l111.6-111.78c1.4727 1.2422 3.1133 2.5664 4.9102 3.9414l-51.93 119.68c-2.0938 4.8281 0.12109 10.434 4.9453 12.527 1.2344 0.53516 2.5195 0.78906 3.7852 0.78906 3.6797 0 7.1836-2.1445 8.7422-5.7344l50.602-116.62c2.6055 1.4688 5.3633 2.9102 8.2773 4.2969l-25.688 141.3c-0.94141 5.1719 2.4922 10.133 7.668 11.074 0.57812 0.10547 1.1484 0.15625 1.7148 0.15625 4.5156 0 8.5234-3.2227 9.3594-7.8203l25.027-137.7c1.4375 0.4375 2.9023 0.85156 4.3867 1.2461l8.5469 217.87c0.19922 5.1289 4.4219 9.1484 9.5078 9.1484 0.125 0 0.25391-0.003907 0.38281-0.007813 5.2578-0.20703 9.3516-4.6328 9.1445-9.8906l-8.3789-213.58c3.5977 0.375 7.3086 0.58984 11.117 0.64453l70.203 415.51zm6.6758-176.34 188.71 155.52-44.18 53.785-126.83-104.52zm307.77 88.141-125.24 152.47-23.297-19.199 125.26-152.5c61.938-75.402 51.078-187.21-24.203-249.25-36.465-30.051-82.434-44.082-129.43-39.508-47.02 4.5703-89.445 27.215-119.46 63.754l-31.332 38.145-6.6641-39.445 14.719-17.918c35.133-42.77 84.789-69.273 139.82-74.625 55.016-5.3516 108.81 11.074 151.49 46.246 88.141 72.633 100.85 203.55 28.332 291.83zm116-389.44-97.461 118.65c-10.039-12.91-21.625-24.922-34.754-35.742-13.027-10.738-27.008-19.871-41.699-27.34l97.441-118.63c8.4062-10.234 20.289-16.574 33.453-17.855 13.152-1.2891 26.027 2.6484 36.238 11.062 21.094 17.391 24.137 48.723 6.7812 69.855zm-47.758-113.08c0 4.75-0.67969 9.3984-1.9844 13.883-16.277 2.75-30.855 11.16-41.449 24.051l-9.6016 11.691-290.91-0.007812 9.9648-9.9844c3.7109-3.7188 3.7109-9.7422 0-13.457l-0.24219-0.24219 16.387-16.41h268.31c5.2578 0 9.5234-4.2656 9.5234-9.5234 0-5.2578-4.2656-9.5234-9.5234-9.5234l-249.29-0.003906 40.027-40.09h209.27c27.301 0 49.516 22.258 49.516 49.617zm-49.52-167.9c27.305 0 49.52 22.258 49.52 49.613 0 27.359-22.215 49.617-49.52 49.617h-190.25l40.027-40.094h150.23c5.2578 0 9.5234-4.2656 9.5234-9.5234 0-5.2578-4.2656-9.5234-9.5234-9.5234h-131.21l40.027-40.09zm168.27-286.84-329.18 329.71-0.003907 0.003907-118.08 118.27c-0.003906 0.003906-0.003906 0.003906-0.007812 0.007813l-19.156 19.188-28.293-28.34 36.461-36.52 0.003906-0.003906 118.08-118.28 0.003906-0.003906 311.91-312.4c3.7773-3.7852 8.7969-5.8672 14.133-5.8672 5.3398 0 10.359 2.082 14.137 5.8672 7.8047 7.8164 7.8047 20.539 0 28.359z"/>
 <path d="m1044 574.52c-7.7695 0.75391-14.777 4.4961-19.734 10.531-10.223 12.445-8.4297 30.902 3.9961 41.141 5.2773 4.3516 11.758 6.668 18.508 6.668 0.95312 0 1.9141-0.046875 2.875-0.14062 7.7695-0.75391 14.777-4.4961 19.734-10.531 10.223-12.445 8.4297-30.902-3.9961-41.141-6.0234-4.957-13.609-7.2695-21.383-6.5273zm10.66 35.582c-1.7227 2.0977-4.1602 3.3984-6.8594 3.6602-2.6875 0.26562-5.3359-0.54297-7.4297-2.2695-4.332-3.5703-4.9609-10.008-1.3906-14.352 1.7227-2.0977 4.1602-3.3984 6.8594-3.6602 0.33203-0.035157 0.66797-0.050781 0.99609-0.050781 2.3438 0 4.5938 0.80469 6.4297 2.3164 4.3398 3.5742 4.9648 10.012 1.3945 14.355z"/>
</svg>
