<?xml version="1.0" encoding="UTF-8"?>
<svg width="1200pt" height="1200pt" version="1.1" viewBox="0 0 1200 1200" xmlns="http://www.w3.org/2000/svg">
 <path d="m595.08 237.52c32.578 0 61.922 19.594 74.344 49.688 12.469 30.094 5.5781 64.688-17.438 87.703s-57.656 29.906-87.703 17.484c-30.094-12.469-49.688-41.812-49.688-74.391 0-44.438 36.047-80.484 80.484-80.484zm57.375 578.34 164.95-0.046875c7.0781 0 12.797 5.7188 12.797 12.797v35.859l142.18-95.766-142.18-95.766v35.906c0 7.0781-5.7188 12.75-12.797 12.797h-164.95zm152.21 25.547h-69.516v213h306.47v-908.81h-306.47v402.79l6.1875 0.1875v0.046875c29.062 0.98438 51.938 25.219 51.281 54.281-0.46875 14.203-6.5625 27.656-16.922 37.359-10.125 9.5156-23.625 14.672-37.547 14.297l-3.0938-0.14062v41.578h69.516l0.046875-47.062c0-4.7344 2.625-9.0469 6.75-11.25 4.1719-2.2031 9.2344-1.9219 13.172 0.70312l177.61 119.62-0.046876-0.046875c3.6094 2.3438 5.8125 6.3281 5.8594 10.641 0.046874 4.2656-2.0625 8.2969-5.625 10.688l-177.24 119.39c-3.8906 2.9062-9.0469 3.3281-13.359 1.1719s-7.0312-6.5625-7.0781-11.391zm-95.109 0h-69.891c-7.0312-0.046875-12.75-5.7188-12.75-12.797v-119.77c0-3.375 1.3125-6.6562 3.7031-9.0469 2.4375-2.3906 5.6719-3.75 9.0469-3.7031h69.891v-42.422l-92.484-3.1406v-0.046875c-8.4375 0.98438-16.922-0.046875-24.891-3-8.2031-3.0469-15.562-8.1094-21.281-14.766l-32.016-37.5-49.828 119.44 76.734 48.797c14.766 9.375 23.906 25.5 24.469 42.984l12.234 185.95c1.9219 14.719-2.2969 29.625-11.625 41.156-9.2812 11.578-22.969 18.797-37.734 20.062-27.516 2.4844-51.984-17.344-55.219-44.766l-9.9375-169.31-51.469-32.672-26.109 73.125c-2.9531 8.25-7.875 15.609-14.391 21.469-6.2812 5.625-13.781 9.7031-21.891 11.906l-166.97 72.516c-26.859 11.625-58.078-0.65625-69.797-27.469-11.625-26.812 0.60938-58.031 27.422-69.703l153.74-66.844 37.219-104.02h-0.046875c1.0312-6.7969 3.375-13.312 6.8906-19.172l1.4531-3.375 62.719-149.86-49.359 1.7344-55.688 65.438c-19.031 22.031-52.219 24.562-74.391 5.7188l-0.5625-0.51562c-21.891-19.312-24.141-52.641-5.1094-74.766l71.344-83.672c5.7188-6.6562 13.031-11.719 21.234-14.766 7.9688-2.9531 16.5-3.9844 24.891-3l113.2-3.8438c10.734-18.047 29.953-29.344 50.953-29.953 20.953-0.60938 40.828 9.5625 52.547 26.953 6.7031 9.9844 10.359 21.75 10.453 33.797-0.09375 12.375 4.4062 24.375 12.609 33.656l36.328 42.797 74.391 2.5312v-414.74c0-7.0781 5.7188-12.797 12.797-12.797h331.92c7.0312 0 12.75 5.7188 12.797 12.797v934.4c0 3.375-1.3594 6.6562-3.75 9.0469-2.3906 2.3906-5.6719 3.75-9.0469 3.75h-331.92c-7.0312 0-12.75-5.7188-12.75-12.797zm13.406-267.94-93.609-3.1406v-0.046875c-3.7969 0.09375-7.4531-1.5938-9.9375-4.5l-39.984-47.109c-12-13.828-18.609-31.594-18.562-49.922-0.09375-16.969-12.141-31.547-28.828-34.875-16.641-3.2812-33.328 5.5781-39.938 21.281l-106.03 253.45-5.4844 15.328v-0.046875c-0.23438 2.6719 0 5.3906 0.60938 7.9688 1.5469 7.125 5.8594 13.359 12 17.25l113.81 72.422c3.75 2.2969 6 6.375 6 10.781l10.266 175.22c1.2188 19.781 34.125 30 48 9.7031 4.4062-6.8438 6.4219-15 5.7188-23.156l-12.141-185.76c0.046875-4.7812-1.2188-9.5625-3.5625-13.734-2.25-3.9375-5.3906-7.2656-9.2344-9.7031l-85.969-54.703v0.046875c-5.9531-3.7969-7.7344-11.672-3.9844-17.625l0.46875-0.60938 60.234-144.66v-0.046875c1.3594-4.5938 5.2031-8.0156 9.8906-8.9062 4.7344-0.84375 9.5156 1.0312 12.422 4.8281l45.188 52.922c6.0469 6.9844 15.281 10.359 24.422 8.9531 4.4531-0.60938 93.141 3.4219 107.62 3.4219l15.891 0.51562h-0.046875c15.188 0.75 28.125-10.969 28.875-26.156 0.32812-7.3594-2.25-14.531-7.2656-19.969-4.9688-5.4375-11.906-8.625-19.266-8.9062zm-355.36 186.74-26.906 75.422c-1.3125 3.6094-4.125 6.4219-7.7344 7.7344l-157.97 68.625c-13.875 6.1406-20.25 22.312-14.297 36.281 6.0938 13.875 22.219 20.25 36.188 14.297l169.97-73.641 0.046876 0.046875c8.9531-2.2031 16.266-8.7656 19.406-17.438l28.078-78.562-34.781-22.172c-4.5-2.8594-8.5781-6.375-12-10.453zm69.891-240.61 23.391-55.922-104.02 3.3281v-0.046875c-9.1875-1.3594-18.375 2.0156-24.469 8.9531l-71.344 83.672c-10.078 11.625-8.8125 29.203 2.7656 39.281 11.391 9.7031 28.5 8.4844 38.391-2.7188l59.344-69.891c2.4844-2.9062 6.0938-4.5469 9.8906-4.5zm196.45-240.47c-15.75-15.703-39.375-20.391-59.906-11.906s-33.891 28.547-33.891 50.766 13.359 42.281 33.891 50.766 44.156 3.7969 59.906-11.906c10.312-10.312 16.078-24.281 16.078-38.859s-5.7656-28.547-16.078-38.859z"/>
</svg>
