<?xml version="1.0" encoding="UTF-8"?>
<svg width="1200pt" height="1200pt" version="1.1" viewBox="0 0 1200 1200" xmlns="http://www.w3.org/2000/svg">
 <path d="m148.22 196.13c-30.234 0-54.797 24.562-54.797 54.797v698.21c0 30.188 24.562 54.797 54.797 54.797h903.52c30.234 0 54.797-24.562 54.797-54.797v-698.21c0-30.188-24.562-54.797-54.797-54.797zm903.52 830.9h-903.52c-42.984 0-77.906-34.969-77.906-77.906v-698.21c0-42.938 34.922-77.906 77.906-77.906h903.52c42.984 0 77.906 34.969 77.906 77.906v698.21c0 42.938-34.969 77.906-77.906 77.906z" fill-rule="evenodd"/>
 <path d="m211.97 288.66c-14.344 0-26.016 11.672-26.016 26.016v247.74c0 14.344 11.672 26.016 26.016 26.016h776.06c14.344 0 26.016-11.672 26.016-26.016v-247.74c0-14.344-11.672-26.016-26.016-26.016zm776.02 322.92h-776.02c-27.094 0-49.172-22.031-49.172-49.172v-247.74c0-27.094 22.031-49.172 49.125-49.172h776.06c27.094 0 49.172 22.031 49.172 49.172v247.74c0 27.094-22.078 49.172-49.172 49.172z" fill-rule="evenodd"/>
 <path d="m211.97 677.16c-14.344 0-26.016 11.672-26.016 26.016v182.16c0 14.344 11.672 26.016 26.016 26.016h156.66c14.344 0 26.016-11.672 26.016-26.016v-182.16c0-14.344-11.672-26.016-26.016-26.016zm156.66 257.34h-156.66c-27.094 0-49.172-22.031-49.172-49.172v-182.16c0-27.094 22.031-49.172 49.125-49.172h156.66c27.094 0 49.172 22.031 49.172 49.172v182.16c0 27.094-22.031 49.172-49.172 49.172z" fill-rule="evenodd"/>
 <path d="m521.68 677.16c-14.344 0-26.016 11.672-26.016 26.016v182.16c0 14.344 11.672 26.016 26.016 26.016h156.66c14.344 0 26.016-11.672 26.016-26.016v-182.16c0-14.344-11.672-26.016-26.016-26.016zm156.66 257.34h-156.66c-27.094 0-49.172-22.031-49.172-49.172v-182.16c0-27.094 22.031-49.172 49.125-49.172h156.66c27.094 0 49.125 22.031 49.125 49.172v182.16c0 27.094-22.031 49.172-49.125 49.172z" fill-rule="evenodd"/>
 <path d="m831.37 677.16c-14.344 0-26.016 11.672-26.016 26.016v182.16c0 14.344 11.672 26.016 26.016 26.016h156.66c14.344 0 26.016-11.672 26.016-26.016v-182.16c0-14.344-11.672-26.016-26.016-26.016zm156.66 257.34h-156.66c-27.094 0-49.172-22.031-49.172-49.172v-182.16c0-27.094 22.031-49.172 49.125-49.172h156.66c27.094 0 49.172 22.031 49.172 49.172v182.16c0 27.094-22.031 49.172-49.172 49.172z" fill-rule="evenodd"/>
 <path d="m499.26 361.26c-135.98 0-230.81 40.734-230.81 77.25 0 36.562 94.781 77.25 230.76 77.25 136.03 0 230.76-40.734 230.76-77.25 0-36.562-94.781-77.25-230.76-77.25zm0 177.66c-66.047 0-128.34-9.4688-175.31-26.719-50.672-18.562-78.609-44.719-78.609-73.688 0-28.922 27.938-55.078 78.609-73.688 47.016-17.25 109.27-26.719 175.31-26.719 66.047 0 128.34 9.4688 175.36 26.719 50.672 18.562 78.562 44.719 78.562 73.688 0 28.922-27.891 55.078-78.562 73.688-47.016 17.25-109.27 26.719-175.36 26.719z" fill-rule="evenodd"/>
 <path d="m366.05 465.74c-6.375 0-11.578-5.1562-11.578-11.578v-31.359c0-6.375 5.1562-11.578 11.578-11.578 6.375 0 11.578 5.1562 11.578 11.578v31.359c0 6.375-5.2031 11.578-11.578 11.578z" fill-rule="evenodd"/>
 <path d="m432.66 476.63c-6.375 0-11.578-5.1562-11.578-11.578v-53.016c0-6.375 5.1562-11.578 11.578-11.578 6.375 0 11.578 5.1562 11.578 11.578v53.016c0 6.375-5.2031 11.578-11.578 11.578z" fill-rule="evenodd"/>
 <path d="m499.26 488.21c-6.375 0-11.578-5.1562-11.578-11.578v-76.219c0-6.375 5.2031-11.578 11.578-11.578 6.4219 0 11.578 5.1562 11.578 11.578v76.219c0 6.375-5.1562 11.578-11.578 11.578z" fill-rule="evenodd"/>
 <path d="m565.87 476.63c-6.375 0-11.578-5.1562-11.578-11.578v-53.016c0-6.375 5.1562-11.578 11.578-11.578 6.375 0 11.578 5.1562 11.578 11.578v53.016c0 6.375-5.2031 11.578-11.578 11.578z" fill-rule="evenodd"/>
 <path d="m632.48 465.74c-6.375 0-11.578-5.1562-11.578-11.578v-31.359c0-6.375 5.2031-11.578 11.578-11.578s11.578 5.1562 11.578 11.578v31.359c0 6.375-5.2031 11.578-11.578 11.578z" fill-rule="evenodd"/>
 <path d="m811.97 430.13c-3.9844 0-7.875-2.0625-10.031-5.7656-3.1875-5.5312-1.3125-12.609 4.2188-15.797l77.906-45c5.5312-3.1875 12.609-1.3125 15.797 4.2188s1.2656 12.609-4.2188 15.797l-77.906 44.953c-1.8281 1.0312-3.7969 1.5469-5.7656 1.5469z" fill-rule="evenodd"/>
 <path d="m807.89 489.24c-3.9844 0-7.9219-2.0625-10.031-5.7656-3.1875-5.5312-1.3125-12.609 4.2188-15.797l135.24-78.047c5.5312-3.1875 12.609-1.3125 15.797 4.2188s1.3125 12.609-4.2188 15.797l-135.19 78.047c-1.8281 1.0312-3.7969 1.5469-5.7656 1.5469z" fill-rule="evenodd"/>
 <path d="m861.14 515.26c-3.9844 0-7.875-2.0625-10.031-5.7656-3.1875-5.5312-1.3125-12.609 4.2188-15.797l77.906-44.953c5.5312-3.1875 12.609-1.3125 15.797 4.2188s1.3125 12.609-4.2188 15.797l-77.906 44.953c-1.8281 1.0312-3.8438 1.5469-5.7656 1.5469z" fill-rule="evenodd"/>
 <path d="m311.95 780.79c-18.75 0-33.984 15.234-33.984 33.984s15.234 33.984 33.984 33.984 33.984-15.234 33.984-33.984-15.234-33.984-33.984-33.984zm0 91.078c-31.5 0-57.094-25.594-57.094-57.094s25.594-57.094 57.094-57.094 57.094 25.594 57.094 57.094-25.594 57.094-57.094 57.094z" fill-rule="evenodd"/>
 <path d="m266.68 830.81h-0.51562c-30.609-1.3125-54.609-26.391-54.609-57.047 0-31.5 25.594-57.094 57.094-57.094 29.531 0 53.953 22.125 56.859 51.469 0.60938 6.375-4.0312 12-10.406 12.656-6.375 0.60938-12-4.0312-12.656-10.359-1.6875-17.438-16.219-30.609-33.797-30.609-18.703 0-33.984 15.234-33.984 33.984 0 18.234 14.25 33.141 32.484 33.938 6.375 0.28125 11.344 5.6719 11.062 12.047-0.28125 6.1875-5.3906 11.062-11.531 11.062z" fill-rule="evenodd"/>
 <path d="m566.02 760.31c-14.531 0-26.391 11.812-26.391 26.391 0 7.6406 3.3281 14.953 9.0938 19.969 4.2656 3.7031 5.25 9.9375 2.2969 14.766-2.4844 4.125-3.8438 8.8594-3.8438 13.688 0 14.531 11.812 26.391 26.391 26.391 12.375 0 23.203-8.7656 25.781-20.859 0.84375-3.8906 3.6094-7.0781 7.3125-8.4375 3.75-1.3594 7.9219-0.70312 11.062 1.7344 4.6875 3.6094 10.266 5.5312 16.172 5.5312 14.578 0 26.391-11.812 26.391-26.391 0-12.094-8.1562-22.594-19.875-25.594-3.75-0.9375-6.7969-3.7031-8.0625-7.3594-1.3125-3.6562-0.65625-7.6875 1.6875-10.781 3.4688-4.5938 5.2969-10.078 5.2969-15.891 0-14.531-11.812-26.391-26.391-26.391-13.688 0-24.984 10.266-26.25 23.906-0.32812 3.375-2.0625 6.4219-4.8281 8.3438-2.7656 1.9688-6.1875 2.625-9.4688 1.7812-2.1094-0.51562-4.2188-0.79688-6.4219-0.79688zm7.5938 124.31c-27.281 0-49.5-22.219-49.5-49.5 0-6.0469 1.0781-12 3.1875-17.578-6.9375-8.7188-10.781-19.547-10.781-30.891 0-27.281 22.219-49.5 49.5-49.5h0.1875c6.75-19.594 25.172-33.234 46.828-33.234 27.281 0 49.5 22.219 49.5 49.5 0 5.9531-1.0312 11.719-3.0469 17.156 14.625 8.7656 24 24.703 24 42.469 0 27.281-22.219 49.5-49.5 49.5-6 0-11.812-1.0312-17.297-3.0938-8.625 15.141-24.984 25.125-43.078 25.125z" fill-rule="evenodd"/>
 <path d="m915.61 786.61c-6.375 0-11.578 5.2031-11.578 11.578v37.781c0 6.375 5.2031 11.578 11.578 11.578h37.828c6.375 0 11.578-5.2031 11.578-11.578v-37.781c0-6.375-5.2031-11.578-11.578-11.578zm37.828 84.047h-37.828c-19.125 0-34.688-15.562-34.688-34.688v-37.781c0-19.125 15.562-34.688 34.688-34.688h37.828c19.125 0 34.688 15.562 34.688 34.688v37.781c0 19.125-15.562 34.688-34.688 34.688z" fill-rule="evenodd"/>
 <path d="m892.45 825.05h-26.484c-19.125 0-34.688-15.562-34.688-34.688v-37.781c0-19.125 15.562-34.688 34.688-34.688h37.781c19.125 0 34.688 15.562 34.688 34.688v22.5c0 6.375-5.2031 11.578-11.578 11.578s-11.578-5.1562-11.578-11.578v-22.5c0-6.375-5.2031-11.578-11.578-11.578h-37.781c-6.375 0-11.578 5.2031-11.578 11.578v37.781c0 6.375 5.1562 11.578 11.578 11.578h26.484c6.4219 0 11.578 5.1562 11.578 11.578 0 6.375-5.1562 11.578-11.578 11.578z" fill-rule="evenodd"/>
</svg>
