<?xml version="1.0" encoding="UTF-8"?>
<svg width="1200pt" height="1200pt" version="1.1" viewBox="0 0 1200 1200" xmlns="http://www.w3.org/2000/svg">
 <path d="m600 0.1875c-213.82 0-387.19 173.32-387.19 387.19 0 35.852 4.9141 70.574 14.023 103.5 3.6367 13.199 7.9492 26.102 12.938 38.699l11.738 26.664 348.49 643.95 348.94-644.85 10.574-24.039c5.25-13.125 9.8242-26.625 13.648-40.426 9.1133-32.961 14.023-67.648 14.023-103.5 0.003906-213.82-173.36-387.18-387.18-387.18zm26.852 584.32h-49.688v-273.34h49.688zm-25.988-319.69c-17.551 0-29.961-13.539-29.961-30.488 0-17.512 13.012-31.051 31.051-31.051 18.637 0 30.488 13.539 30.488 31.051 0.63281 16.953-11.816 30.488-31.578 30.488z"/>
</svg>
