<?xml version="1.0" encoding="UTF-8"?>
<svg width="1200pt" height="1200pt" version="1.1" viewBox="0 0 1200 1200" xmlns="http://www.w3.org/2000/svg">
 <path d="m423.89 12.141h352.26c15.234 0 27.562 12.328 27.562 27.562v356.63h356.63c15.234 0 27.562 12.328 27.562 27.562v352.26c0 15.234-12.328 27.562-27.562 27.562h-356.63v356.63c0 15.234-12.328 27.562-27.562 27.562h-352.26c-15.234 0-27.562-12.328-27.562-27.562v-356.63h-356.63c-15.234 0-27.562-12.328-27.562-27.562v-352.26c0-15.234 12.328-27.562 27.562-27.562h356.63v-356.63c0-15.234 12.328-27.562 27.562-27.562z"/>
</svg>
