<?xml version="1.0" encoding="UTF-8"?>
<svg width="1200pt" height="1200pt" version="1.1" viewBox="0 0 1200 1200" xmlns="http://www.w3.org/2000/svg">
 <path d="m571 36h-74.316c-13.234 0-24 10.766-24 24v1.0586h-86.105c-19.852 0-36 16.148-36 36v208.88c0 19.852 16.148 36 36 36h86.105v798.07c0 13.23 10.766 24 24 24h74.316c13.234 0 24-10.77 24-24v-1080c0-13.234-10.766-24-24-24zm-98.316 281.93h-86.105c-6.6133 0-12-5.3867-12-12v-6.8164h34.262c6.6289 0 12-5.3711 12-12 0-6.6289-5.3711-12-12-12h-34.262v-18.816h34.262c6.6289 0 12-5.3711 12-12 0-6.6289-5.3711-12-12-12h-34.262v-18.809h34.262c6.6289 0 12-5.3711 12-12 0-6.6289-5.3711-12-12-12h-34.262v-18.816h34.262c6.6289 0 12-5.3711 12-12 0-6.6289-5.3711-12-12-12h-34.262l0.003906-18.801h34.262c6.6289 0 12-5.3711 12-12s-5.3711-12-12-12h-34.262v-6.8164c0-6.6133 5.3867-12 12-12h86.105zm24 822.07v-1080h74.316l0.015625 1080zm337.46-498.3c-0.41016-13.055-10.945-23.273-24-23.273h-3.8555v-38.254c0-13.234-10.77-24-24-24h-54.316c-13.23 0-24 10.766-24 24v38.258h-3.8555c-13.043 0-23.578 10.219-23.988 23.273l-15.246 497.57c-0.21094 6.5469 2.1914 12.734 6.75 17.445 4.5586 4.6992 10.676 7.2891 17.227 7.2891h140.55c6.5508 0 12.668-2.5898 17.227-7.2891 4.5586-4.7109 6.9609-10.898 6.7617-17.438zm-106.17-61.527h54.316l0.015625 38.258h-54.332zm-43.102 559.83 15.246-497.58h110.03l15.27 497.58zm70.266-333.62c-27.363 0-47.988 33.445-47.988 77.789s20.625 77.777 47.988 77.777c27.352 0 47.977-33.434 47.977-77.777s-20.625-77.789-47.977-77.789zm0 131.57c-9.7852 0-23.988-20.953-23.988-53.777 0-32.836 14.203-53.789 23.988-53.789 9.7734 0 23.977 20.953 23.977 53.789 0 32.824-14.203 53.777-23.977 53.777z"/>
</svg>
