<?xml version="1.0" encoding="UTF-8"?>
<svg width="1200pt" height="1200pt" version="1.1" viewBox="0 0 1200 1200" xmlns="http://www.w3.org/2000/svg">
 <path d="m435.32 282.61c0 8.1094-6.5625 14.625-14.625 14.625-8.1094 0-14.625-6.5625-14.625-14.625v-138.79c0-54.516 44.531-99.094 99.094-99.094h551.02c54.516 0 99.094 44.578 99.094 99.094v819.14c0 54.516-44.578 99.094-99.094 99.094h-392.02c-8.1094 0-14.625-6.5625-14.625-14.625 0-8.1094 6.5625-14.625 14.625-14.625h392.02c38.344 0 69.797-31.406 69.797-69.797l-0.046875-819.19c0-38.344-31.406-69.797-69.797-69.797l-551.02 0.046874c-38.344 0-69.797 31.453-69.797 69.797zm-121.03 396.89c-19.875 0-36.047 16.219-36.047 36.047v25.922h-25.922c-19.828 0-36.047 16.172-36.047 36.047v47.297c0 19.875 16.219 36.047 36.047 36.047h25.922v25.922c0 19.875 16.172 36.047 36.047 36.047h47.297c19.875 0 36.047-16.172 36.047-36.047v-25.922h25.922c19.875 0 36.047-16.172 36.047-36.047v-47.297c0-19.875-16.172-36.047-36.047-36.047h-25.922v-25.922c0-19.875-16.172-36.047-36.047-36.047zm47.297 29.297h-47.297c-3.7031 0-6.75 3.0938-6.75 6.75v40.594c0 8.1094-6.5625 14.625-14.625 14.625h-40.594c-3.7031 0-6.75 3.0938-6.75 6.75v47.297c0 3.7031 3.0938 6.75 6.75 6.75h40.594c8.1094 0 14.625 6.5625 14.625 14.625v40.594c0 3.7031 3.0938 6.75 6.75 6.75h47.297c3.7031 0 6.75-3.0938 6.75-6.75v-40.547c0-8.1094 6.5625-14.625 14.625-14.625h40.594c3.7031 0 6.75-3.0938 6.75-6.75v-47.297c0-3.7031-3.0938-6.75-6.75-6.75h-40.594c-8.1094 0-14.625-6.5625-14.625-14.625v-40.594c0-3.75-3.0469-6.7969-6.75-6.7969zm-287.53-86.297h527.81v-13.172c0-73.078-59.859-132.94-132.94-132.94l-261.98 0.046875c-73.078 0-132.94 59.859-132.94 132.94zm527.76 29.297h-527.76v298.78h527.81zm0 328.08h-527.76v94.734c0 28.219 23.156 51.375 51.375 51.375h425.06c28.219 0 51.375-23.156 51.375-51.375zm-380.21-608.02h129.71c8.1094 0 14.625 6.5625 14.625 14.625 0 8.1094-6.5625 14.625-14.625 14.625h-129.71v45.984h232.69v-82.406c0-16.5-13.547-30.047-30.047-30.047l-172.6 0.046875c-16.5 0-30.047 13.547-30.047 30.047zm-29.297 75.938c-82.781 7.5-147.56 77.578-147.56 161.53v465.24c0 44.391 36.281 80.672 80.672 80.672h425.06c44.391 0 80.672-36.281 80.672-80.672l-0.046875-465.24c0-84-64.781-154.08-147.56-161.58v-83.109c0-32.672-26.672-59.297-59.297-59.297l-172.6 0.046875c-32.672 0-59.297 26.672-59.297 59.297zm573.71-309.61v830.48c0 8.1094 6.5625 14.625 14.625 14.625 8.1094 0 14.625-6.5625 14.625-14.625v-830.48c0-8.1094-6.5625-14.625-14.625-14.625s-14.625 6.5156-14.625 14.625zm123.52 739.13 144.71-83.578c-31.969-38.156-89.766-40.781-125.02-5.5312-23.109 23.109-31.078 57.844-19.688 89.109zm159.37-58.266-144.71 83.578c31.969 38.156 89.766 40.781 125.02 5.5312 23.109-23.156 31.078-57.891 19.688-89.109zm-79.688-84.984c-63 0-114.09 51.094-114.09 114.09s51.094 114.09 114.09 114.09 114.09-51.094 114.09-114.09-51.094-114.09-114.09-114.09zm-79.641-151.5 144.74-83.578c-31.969-38.203-89.766-40.828-125.06-5.5781-23.156 23.203-31.125 57.938-19.688 89.156zm159.28-58.312-144.74 83.578c31.922 38.156 89.766 40.828 125.06 5.5781 23.156-23.156 31.172-57.891 19.688-89.156zm-79.641-84.938c-63 0-114.09 51.094-114.09 114.09s51.094 114.09 114.09 114.09 114.09-51.094 114.09-114.09-51.094-114.09-114.09-114.09zm-79.688-151.5 144.71-83.578c-31.969-38.156-89.766-40.781-125.02-5.5312-23.109 23.109-31.078 57.844-19.688 89.109zm159.37-58.266-144.71 83.578c31.969 38.156 89.766 40.781 125.02 5.5312 23.109-23.156 31.078-57.891 19.688-89.109zm-79.688-84.984c-63 0-114.09 51.094-114.09 114.09s51.094 114.09 114.09 114.09 114.09-51.094 114.09-114.09-51.094-114.09-114.09-114.09zm-456.84 143.26 144.71-83.578c-31.969-38.156-89.766-40.781-125.02-5.5312-23.109 23.109-31.125 57.844-19.688 89.109zm159.32-58.266-144.71 83.578c31.969 38.156 89.766 40.781 125.02 5.5312 23.156-23.156 31.125-57.891 19.688-89.109zm-88.406 239.48c28.453-2.9062 55.969 8.7188 73.781 29.953l-23.016 13.312c-6.9844 4.0312-9.375 12.984-5.2969 19.969 4.0312 6.9844 12.984 9.375 19.969 5.2969l23.016-13.266c11.109 30.422 3.9844 64.266-18.188 87.562-5.5781 5.8594-5.3438 15.094 0.51562 20.625 5.8594 5.5781 15.094 5.3438 20.672-0.51563 9.8906-10.406 17.812-22.688 23.297-36.328 31.594-79.125-31.969-164.44-117.66-155.72-8.0156 0.79688-13.875 7.9688-13.031 16.031 0.75 8.0156 7.9219 13.875 15.938 13.078zm88.172 350.16 0.32812-0.1875c11.062 30.328 3.8906 64.359-18.234 87.609-5.5781 5.8594-5.3438 15.094 0.51562 20.672s15.094 5.3438 20.672-0.51562c42.188-44.344 41.531-113.48 0-157.13-5.5781-5.8594-14.812-6.0938-20.672-0.51563-5.8594 5.5781-6.0938 14.812-0.51562 20.672 1.2188 1.3125 2.4375 2.625 3.5625 3.9844-7.3594 4.2656-9.7031 13.125-5.625 20.156 4.0312 6.8906 12.984 9.2812 19.969 5.25zm-79.406-674.63c-63 0-114.09 51.094-114.09 114.09s51.094 114.09 114.09 114.09 114.09-51.094 114.09-114.09-51.094-114.09-114.09-114.09z" fill-rule="evenodd"/>
</svg>
