<?xml version="1.0" encoding="UTF-8"?>
<svg width="1200pt" height="1200pt" version="1.1" viewBox="0 0 1200 1200" xmlns="http://www.w3.org/2000/svg">
 <path d="m588.66 464.3v-23.184c0-6.2656 5.082-11.336 11.336-11.336 6.2578 0 11.336 5.0703 11.336 11.336v23.184c66.141 5.4492 118.85 58.215 124.24 124.37h23.32c6.2578 0 11.336 5.082 11.336 11.336 0 6.2656-5.0781 11.336-11.336 11.336h-23.344c-5.5156 66.02-58.176 118.64-124.22 124.08v23.48c0 6.2656-5.0781 11.336-11.336 11.336-6.2539 0-11.336-5.0703-11.336-11.336v-23.48c-66.039-5.4414-118.7-58.062-124.21-124.08h-23.344c-6.2578 0-11.336-5.0703-11.336-11.336 0-6.2539 5.0781-11.336 11.336-11.336h23.32c5.3906-66.152 58.102-118.92 124.24-124.37zm124.7 135.56c0 62.609-50.746 113.36-113.36 113.36-62.609 0-113.36-50.746-113.36-113.36 0-62.613 50.746-113.36 113.36-113.36 62.613 0 113.36 50.746 113.36 113.36zm-45.344 0c0 37.566-30.449 68.012-68.016 68.012s-68.012-30.445-68.012-68.012 30.445-68.016 68.012-68.016 68.016 30.449 68.016 68.016zm-22.672 0c0 25.043-20.297 45.34-45.344 45.34-25.043 0-45.34-20.297-45.34-45.34 0-25.047 20.297-45.344 45.34-45.344 25.047 0 45.344 20.297 45.344 45.344z" fill-rule="evenodd"/>
</svg>
