<?xml version="1.0" encoding="UTF-8"?>
<svg width="1200pt" height="1200pt" version="1.1" viewBox="0 0 1200 1200" xmlns="http://www.w3.org/2000/svg">
 <path d="m855.37 471.37h-126.71v-126.71c0-71.062-57.609-128.63-128.63-128.63-71.062 0-128.63 57.609-128.63 128.63v126.71h-126.71c-71.062 0-128.63 57.609-128.63 128.63 0 71.062 57.609 128.63 128.63 128.63h126.71v126.71c0 71.062 57.609 128.63 128.63 128.63 71.062 0 128.63-57.609 128.63-128.63v-126.71h126.71c71.062 0 128.63-57.609 128.63-128.63 0-71.062-57.609-128.63-128.63-128.63z"/>
</svg>
