<?xml version="1.0" encoding="UTF-8"?>
<svg width="1200pt" height="1200pt" version="1.1" viewBox="0 0 1200 1200" xmlns="http://www.w3.org/2000/svg">
 <path d="m661.97 1101.5c-0.23438 0-0.46875-0.011719-0.70312-0.023437-2.3789-0.1875-4.582-1.3477-6.0938-3.1992-27.176-33.211-45.246-71.93-55.266-118.36-8.4961-39.375-10.336-78.82-11.719-122.6l-13.125-414.11c-27.023 33.656-61.875 62.555-95.777 90.68-8.6367 7.1719-17.566 14.578-26.18 21.902-48.211 41.051-90.516 109.17-102.87 165.66-0.86719 3.9492-4.3242 6.8086-8.3672 6.9023-4.0312 0.082031-7.6406-2.5781-8.6953-6.4805-24.246-89.227-48.457-202.96-20.145-291.21 6.8789-21.434 16.605-42.188 26.004-62.262 5.4609-11.648 11.109-23.707 16.066-35.625 14.355-34.535 22.102-61.945 16.395-91.898-0.80859-4.2305 1.5703-8.4258 5.6133-9.9023 23.168-8.4609 42.504-23.215 61.195-37.477 5.4023-4.125 10.98-8.3789 16.488-12.352l107.03-77.086c10.488-7.5586 21.328-15.363 34.312-20.941 15.059-6.4688 30.844-8.543 44.426-5.8359 1.3359 0.26953 2.5898 0.84375 3.668 1.6758 35.754 27.738 71.355 56.285 105.79 83.895 30.152 24.188 64.336 51.586 81.141 87.527 13.898 29.719 14.414 61.629 14.918 92.496l0.046876 3.1641c3.3516 200.75 33.797 401.48 90.469 596.61 0.60937 2.0977 0.41016 4.3477-0.53906 6.3164-22.102 45.223-77.52 69.082-128.81 86.473-5.9766 2.0273-12 4.0195-18.035 6.0234-44.062 14.613-89.625 29.719-121.37 57.832-1.6406 1.4297-3.7148 2.2031-5.8594 2.2031zm-73.102-777.55 16.887 532.8c2.2969 72.34 4.8867 154.02 57.527 223.42 33.68-26.648 77.695-41.238 120.36-55.383 6-1.9922 11.988-3.9727 17.93-5.9883 46.664-15.809 96.797-37.02 117.15-74.59-56.484-195.59-86.824-396.7-90.188-597.87l-0.046874-3.1758c-0.46875-29.016-0.94922-59.016-13.266-85.336-15.07-32.227-47.555-58.277-76.219-81.258-33.82-27.117-68.777-55.148-103.84-82.383-9.7148-1.4531-21.023 0.32812-32.109 5.0859-11.215 4.8164-21.258 12.047-30.973 19.055l-107.03 77.086c-5.3086 3.8203-10.547 7.8281-16.102 12.059-17.977 13.711-36.504 27.844-59.051 37.348 4.5586 34.969-6.6211 65.906-18.586 94.711-5.1094 12.281-10.84 24.516-16.383 36.34-9.1758 19.57-18.656 39.809-25.184 60.176-23.848 74.344-7.957 169.61 12.398 250.79 19.113-52.324 57.188-108.35 99.551-144.43 8.6953-7.4062 17.672-14.848 26.355-22.055 38.988-32.344 79.266-65.742 106.1-105.48l-2.8594-90.375z"/>
 <path d="m319.14 481.25-14.391-10.102c30.562-43.547 77.988-77.273 123.86-109.89 9.0117-6.4102 17.52-12.457 25.945-18.609 47.391-34.617 100.05-76.16 125.25-131.34l15.996 7.3008c-26.953 59.051-81.68 102.32-130.88 138.25-8.5195 6.2227-17.473 12.586-26.121 18.738-44.66 31.746-90.832 64.582-119.66 105.66z"/>
 <path d="m372.53 243.71c-8.8477-15.012-8.7773-32.684-8.6602-59.438 0.011718-3.3047 0.035156-6.7852 0.035156-10.43 0.14062-18.152-3.0703-24.281-10.852-39.105-0.94922-1.8047-1.9453-3.7148-3-5.7656-1.1602-2.25-1.2891-4.875-0.375-7.2305 0.91406-2.3555 2.8008-4.1953 5.1797-5.0625 8.9766-3.2695 16.277-5.9648 23.566-8.6484 7.3711-2.7188 14.73-5.4258 23.801-8.7305 4.1602-1.5117 8.7891 0.29297 10.816 4.2305 1.8867 3.6562 3.5859 7.0312 5.1562 10.172 8.3438 16.617 12.539 24.961 23.145 31.723 16.16 10.301 27.855 9.4805 44.027 8.3438 3.3984-0.23438 6.9258-0.48047 10.664-0.63281l0.71484 17.566c-3.4922 0.14062-6.8789 0.375-10.148 0.60938-17.309 1.2188-33.645 2.3555-54.703-11.062-14.695-9.3633-20.543-21.012-29.402-38.66-0.50391-1.0078-1.0195-2.0391-1.5586-3.0938-5.8945 2.1562-11.156 4.1016-16.43 6.0352-4.5938 1.6992-9.1992 3.3867-14.215 5.2266 7.125 13.699 11.355 23.25 11.191 44.156 0 3.6094-0.011719 7.1016-0.035157 10.441-0.10547 24.68-0.17578 39.586 6.2227 50.426z"/>
 <path d="m388.71 1123.9c-7.4531 0-13.91-2.9297-19.711-5.5547-4.0312-1.8281-7.8281-3.5508-11.449-4.0781-4.8281-0.69141-10.266 0.63281-16.02 2.0391-5.9297 1.4414-12.656 3.082-19.77 2.6953-8.8008-0.48047-16.324-3.8906-22.98-6.9023-1.5117-0.67969-3.0117-1.3594-4.5234-2.0039-7.8398-3.3281-14.414-4.1602-18.527-2.3203-2.625 1.1719-5.6484 0.98438-8.1094-0.49219-2.4609-1.4766-4.043-4.0547-4.2422-6.9258-2.6484-37.781 12.246-72.621 26.648-106.32 8.4141-19.676 17.109-40.031 21.82-60.211 7.4883-32.062 8.8945-69.41 10.266-105.53 1.418-37.43 2.8828-76.125 10.957-110.7l17.121 3.9961c-7.6875 32.918-9.1172 70.77-10.5 107.37-1.3945 36.949-2.8477 75.152-10.711 108.86-5.0625 21.68-14.062 42.738-22.77 63.117-12.809 29.965-24.973 58.43-25.523 88.312h0.16406c6.1758 0 13.02 1.5586 20.297 4.6523 1.6289 0.69141 3.2578 1.4297 4.8984 2.168 5.7422 2.6016 11.168 5.0625 16.676 5.3555 4.5117 0.23437 9.4453-0.94922 14.66-2.2266 6.7969-1.6523 14.496-3.5273 22.676-2.3555 6.1055 0.87891 11.484 3.3164 16.219 5.4609 5.3672 2.4375 9.9844 4.5352 14.18 3.8438 3.1172-0.51562 6.0352-2.6953 9.4102-5.2266 4.4648-3.3398 9.5156-7.125 16.652-8.4375 9.9023-1.8164 18.246 1.9922 25.605 5.3438 4.8047 2.1914 9.3516 4.2656 13.617 4.4414 5.4141 0.22266 10.605-2.4141 16.641-5.4844 5.9414-3.0234 12.68-6.4453 20.637-7.3711 8.9062-1.043 17.25 1.2773 24.609 3.3281 6.4336 1.793 12.504 3.4688 18.012 2.7773 5.2031-0.66797 10.512-2.8242 16.137-5.1094 8.0977-3.293 17.285-7.0195 27.527-6.457 2.5781 0.14062 6.0586 1.2188 15.34 4.2656 2.1094 0.69141 4.9453 1.6172 7.7461 2.4961-9.2227-66.035-25.418-121.85-41.098-175.95-2.6367-9.1055-5.2617-18.141-7.8281-27.141-1.1367-3.9961-2.3555-8.1328-3.6094-12.398-8.7188-29.613-19.57-66.457-17.953-105.97 1.6992-41.543 12.586-66.469 32.355-111.71 4.8047-11.004 10.254-23.461 16.254-37.723l16.207 6.8203c-6.0469 14.367-11.52 26.895-16.348 37.945-19.523 44.707-29.332 67.148-30.902 105.4-1.5 36.609 8.8945 71.918 17.25 100.29 1.2656 4.3125 2.5078 8.5078 3.6562 12.551 2.5547 8.9766 5.168 17.977 7.8047 27.059 16.863 58.125 34.289 118.22 43.301 191.14 0.53906 4.3945-2.2617 8.5078-6.5508 9.5977-4.1719 1.0664-8.9648-0.1875-25.758-5.6953-4.0078-1.3125-9.4453-3.1055-11.109-3.4336-6.2344-0.28125-12.762 2.3906-19.664 5.2031-6.4219 2.6133-13.055 5.3086-20.531 6.2695-9.0234 1.1484-17.484-1.1953-24.949-3.2695-6.3633-1.7695-12.387-3.4453-17.859-2.8008-4.8398 0.5625-9.6328 3-14.707 5.5781-7.1953 3.6562-15.363 7.793-25.359 7.3711-7.6992-0.32812-14.32-3.3516-20.156-6.0117-5.7305-2.6133-10.676-4.875-15.129-4.0547-3.082 0.5625-5.9648 2.7188-9.293 5.2266-4.3359 3.2461-9.7266 7.2891-17.086 8.4961-1.5938 0.28125-3.1289 0.39844-4.6172 0.39844z"/>
 <path d="m369.25 1011.1-16.43-6.2344c34.441-90.773 33.938-128.3 33.035-196.41l-0.011718-0.46875c-0.09375-7.3125-0.24609-14.941-0.41016-22.816-1.3477-67.465-3.0234-151.42 25.16-211.31l15.902 7.4883c-26.438 56.168-24.809 137.85-23.496 203.48 0.15234 7.9219 0.31641 15.586 0.41016 22.934v0.46875c0.91406 67.945 1.4531 108.97-34.16 202.86z"/>
 <path d="m517 997.03c-7.7344-48.398-23.367-97.781-38.496-145.52-7.1484-22.559-14.531-45.879-20.977-68.766-11.379-40.418-18.023-88.184-18.234-131.04-0.25781-53.637 9.4102-98.59 27.961-130l15.141 8.9414c-36.094 61.102-29.414 171.05-7.9453 247.32 6.3633 22.605 13.711 45.797 20.812 68.215 15.316 48.363 31.148 98.367 39.094 148.05z"/>
</svg>
